<svg version="1.1" display="none">

    <symbol id="logo" width="156" height="128" viewBox="0 0 156 128" xmlns="http://www.w3.org/2000/svg">
        <path d="M92.646 6.877c-3.744 0.95-6.681 2.671-10.34 6.059-2.645 2.448-2.653 2.406 0.739 3.894 4.968 2.179 8.692 4.748 11.733 8.093 1.932 2.125 1.324 1.938-2.427-0.746-2.997-2.145-8.011-4.915-11.309-6.247-1.894-0.765-6.566-1.086-7.951-0.545l-1.062 0.414 2.387 1.201c4.568 2.298 6.734 4.648 7.693 8.345 0.789 3.042-0.343 5.265-7.38 14.495-9.608 12.6-13.126 17.693-17.188 24.88-6.34 11.216-10.826 24.487-10.755 31.815l0.010 1.001 0.534-0.907c6.771-11.481 7.115-11.995 12.664-18.954 4.588-5.754 15.668-16.462 16.339-15.791 0.075 0.075-0.771 1.268-1.881 2.652-4.824 6.015-9.319 13.804-11.132 19.286-1.147 3.468-2.063 7.757-1.764 8.263 0.121 0.206 2.633 4.005 5.582 8.442l5.361 8.068h-40.59v4.351h92.395l2.12 1.217c12.837 7.37 13.912 7.923 15.533 7.976 2.644 0.087 2.002-0.466-5.418-4.66-3.881-2.194-7.063-4.111-7.072-4.261s5.205-0.272 11.587-0.272h11.604v-4.351h-41.738l-2.61-1.915c-3.038-2.23-12.781-9.115-14.662-10.362-1.196-0.793-1.435-0.826-3.291-0.453-1.1 0.221-2.83 0.404-3.844 0.407-1.659 0.005-1.762 0.050-1.034 0.453 0.827 0.458 2.275 1.37 11.157 7.033 2.792 1.78 5.647 3.594 6.346 4.031l1.269 0.794-27.335 0.012-2.469-3.838c-1.358-2.111-3.551-5.497-4.873-7.524-2.872-4.402-3.070-4.033 1.873-3.487 36.976 4.083 63.422-25.133 53.517-59.122-5.775-19.816-19.968-32.88-32.318-29.746zM103.796 16.026c0.853 0.987 0.799 2.063-0.154 3.078-1.967 2.094-5.259-0.295-3.901-2.831 0.803-1.501 2.863-1.626 4.055-0.247zM50.381 74.847c-0.287 0.273-4.275 2.906-8.862 5.851s-11.114 7.173-14.505 9.395c-3.39 2.222-6.934 4.52-7.875 5.109-5.601 3.502-16.621 10.781-16.828 11.117-0.177 0.285 2.349 0.342 8.995 0.202l9.241-0.194 2.871-1.787c19.54-12.163 21.734-13.629 21.805-14.567 0.103-1.363 2.696-8.502 4.342-11.956 1.614-3.387 1.799-4.102 0.816-3.169z"></path>
    </symbol>

    <symbol id="play" width="64" height="64" viewBox="0 0 64 64" xmlns="http://www.w3.org/2000/svg">
        <path d="M32 0c-17.673 0-32 14.327-32 32s14.327 32 32 32 32-14.327 32-32-14.327-32-32-32zM32 58c-14.359 0-26-11.641-26-26s11.641-26 26-26 26 11.641 26 26-11.641 26-26 26zM24 18l24 14-24 14z"></path>
    </symbol>

    <symbol id="RSS" width="242" height="90" viewBox="0 0 242 90" xmlns="http://www.w3.org/2000/svg">
        <path d="M137.197 3.257c-6.927 1.609-10.367 5.259-10.401 11.036-0.039 6.727 3.729 9.816 15.812 12.966 5.873 1.53 7.869 4.182 5.091 6.758-3.153 2.922-9.323 1.027-10.1-3.105-0.385-2.062-0.366-2.056-6.837-1.696l-5.735 0.318 0.276 1.806c0.425 2.784 2.722 7.082 4.68 8.758 5.802 4.964 21.78 4.455 27.25-0.872l1.6-1.558 0.307 1.811c1.125 6.663 7.892 12.923 15.677 14.504l2.5 0.509-1.477 1.935c-4.874 6.384-5.012 19.44-0.276 26.221 7.248 10.375 27.644 10.074 34.355-0.506l1.249-1.969v9.391h31.61v-10.097h-18.878v-29.416h-12.732l-0.025 4.5c-0.022 3.676-0.121 4.343-0.548 3.642-2.419-3.968-7.13-7.265-11.748-8.218l-2.489-0.515 2.526-1.898c7.858-5.906 12.752-16.681 11.495-25.307-3.305-22.669-35.958-23.020-48.395-0.523-0.802 1.448-1.485 2.68-1.519 2.737s-1.153-0.956-2.489-2.247c-2.77-2.683-4.995-3.665-12.558-5.538-7.037-1.744-8.477-2.967-6.112-5.192 2.25-2.115 7.149-0.745 8.252 2.309 0.647 1.789 0.529 1.772 8.010 1.277l4.326-0.287-0.276-1.724c-1.277-7.987-11.329-12.386-22.424-9.807zM2.635 23.268v19.755h12.732v-15.806h1.294c2.042 0 3.277 1.502 7.214 8.781l3.682 6.803 7.079 0.121c3.893 0.067 7.076 0.003 7.076-0.141 0-2.225-7.934-15.064-10.136-16.402l-1.207-0.734 2.436-1.274c9.031-4.728 7.321-18.273-2.576-20.396-1.249-0.267-7.574-0.467-14.884-0.467h-12.71v19.755zM195.401 6.952c19.87 5.186 18.051 33.064-2.824 43.242-21.268 10.37-40.222-6.654-30.113-27.045 5.898-11.897 20.984-19.316 32.934-16.194zM24.14 12.417c4.472 2.261 1.505 6.435-4.829 6.795l-3.943 0.225v-7.585l3.842 0.006c2.199 0.003 4.306 0.242 4.93 0.557zM188.373 15.91c-3.496 0.928-7.051 4.461-7.054 7.009-0.006 4.163 3.322 5.664 8.558 3.862 3.203-1.102 4.019-1.102 4.612 0.003 1.004 1.879-2.287 3.794-4.207 2.447-0.965-0.675-4.523 1.454-4.559 2.728-0.056 1.918 4.798 2.644 7.771 1.162 9.442-4.705 6.761-14.805-3.032-11.427-3.915 1.35-4.756 1.409-4.756 0.323 0-1.704 2.663-2.936 3.825-1.775 0.475 0.475 4.075-1.912 4.075-2.703 0-1.181-3.189-2.177-5.237-1.631zM174.201 25.383c-2.095 1.516-2.194 1.122 1.648 6.576 2.365 3.355 3.274 5.012 3.184 5.797-0.157 1.342-1.662 1.699-2.72 0.644-0.672-0.672-0.847-0.619-2.438 0.745-4.019 3.443 2.090 6.398 6.629 3.209 4.987-3.504 4.995-5.678 0.037-12.918-3.845-5.617-4.022-5.729-6.342-4.050zM13.044 49.621c-7.183 1.133-11.388 5.333-11.444 11.43-0.056 6.221 3.977 9.765 13.967 12.265 6.123 1.533 8.139 2.703 8.139 4.719 0 5.678-10.164 5.11-11.239-0.627-0.377-2.002-0.329-1.991-6.812-1.64l-5.749 0.312 0.287 1.8c1.311 8.252 6.109 11.686 16.799 12.021 8.477 0.264 11.391-0.557 15.092-4.258l2.534-2.534 0.931 1.257c5.386 7.284 23.58 7.774 29.554 0.793 1.747-2.039 3.707-5.881 3.907-7.65 0.141-1.246 0.101-1.268-5.223-2.883l-5.363-1.628-0.72 2.166c-2.453 7.383-11.714 7.467-13.748 0.127-0.692-2.495-0.608-8.454 0.157-11.022 1.845-6.207 9.638-7.481 12.8-2.090 1.319 2.25 0.965 2.208 6.95 0.855 5.698-1.288 5.453-1.060 4.154-3.859-5.153-11.087-22.475-13.688-31.66-4.759l-2.562 2.492-1.063-1.814c-2.649-4.523-11.005-6.846-19.682-5.473zM134.342 49.632c-4.863 0.844-9.667 3.904-12.381 7.883-0.726 1.066-0.745 0.979-0.768-3.187l-0.023-4.281h-12.732v13.61h-12.732v-13.61h-12.732v39.513h12.732v-15.806h12.732v15.806h12.732v-8.933l1.375 2.073c5.721 8.634 23.414 10.15 31.466 2.694 9.318-8.626 7.49-28.249-3.136-33.671-4.101-2.093-11.298-3.004-16.535-2.095zM20.183 57.727c0.734 0.38 1.595 1.409 2.062 2.467l0.802 1.817 8.578-0.413-0.281 2.239c-0.371 2.962-0.537 3.074-2.998 1.986-1.159-0.512-4.402-1.505-7.211-2.211-6.646-1.665-7.473-2.022-7.813-3.375-0.63-2.503 3.766-4.112 6.865-2.509zM141.871 59.279c6.502 1.806 7.819 16.729 1.789 20.278-4.503 2.649-10.201 0.394-11.537-4.57-2.655-9.863 2.264-17.786 9.748-15.708zM194.951 59.268c7.554 2.098 7.4 19.074-0.191 21.119-6.103 1.642-10.164-2.599-10.133-10.581 0.034-8.294 3.963-12.305 10.325-10.536z"></path>
    </symbol>
   
    <symbol id="(c)" width="19" height="19" viewBox="0 0 16 16" xmlns="http://www.w3.org/2000/svg">
        <path fill="white" d="M8.14773 15.2273C12.3026 15.2273 15.6619 11.8679 15.6477 7.72727C15.6335 3.58665 12.3026 0.227273 8.14773 0.227273C4.02131 0.227273 0.661932 3.58665 0.647727 7.72727C0.633523 11.8679 4.02131 15.2273 8.14773 15.2273ZM8.14773 13.5795C4.91619 13.5795 2.28125 10.9446 2.29545 7.73438C2.30966 4.50284 4.9304 1.875 8.14773 1.875C11.3793 1.875 13.9858 4.48864 14 7.73438C14.0142 10.9588 11.3935 13.5795 8.14773 13.5795ZM4 7.72727C4 10.0568 5.8892 11.946 8.21875 11.946C10.2358 11.946 11.7841 10.5256 12.054 8.63636H10.3352C10.1364 9.60938 9.3125 10.2983 8.21875 10.2983C6.7983 10.2983 5.64773 9.14773 5.64773 7.72727C5.64773 6.30682 6.7983 5.15625 8.21875 5.15625C9.3125 5.15625 10.2855 5.84517 10.4773 6.81818H12.196C11.9261 4.92898 10.2358 3.50852 8.21875 3.50852C5.8892 3.50852 4 5.39773 4 7.72727Z"/>
    </symbol>

    <symbol id="discord_logo" width="30" height="30" viewBox="0 0 50 50" xmlns="http://www.w3.org/2000/svg">
         <path d="M 41.625 10.769531 C 37.644531 7.566406 31.347656 7.023438 31.078125 7.003906 C 30.660156 6.96875 30.261719 7.203125 30.089844 7.589844 C 30.074219 7.613281 29.9375 7.929688 29.785156 8.421875 C 32.417969 8.867188 35.652344 9.761719 38.578125 11.578125 C 39.046875 11.867188 39.191406 12.484375 38.902344 12.953125 C 38.710938 13.261719 38.386719 13.429688 38.050781 13.429688 C 37.871094 13.429688 37.6875 13.378906 37.523438 13.277344 C 32.492188 10.15625 26.210938 10 25 10 C 23.789063 10 17.503906 10.15625 12.476563 13.277344 C 12.007813 13.570313 11.390625 13.425781 11.101563 12.957031 C 10.808594 12.484375 10.953125 11.871094 11.421875 11.578125 C 14.347656 9.765625 17.582031 8.867188 20.214844 8.425781 C 20.0625 7.929688 19.925781 7.617188 19.914063 7.589844 C 19.738281 7.203125 19.34375 6.960938 18.921875 7.003906 C 18.652344 7.023438 12.355469 7.566406 8.320313 10.8125 C 6.214844 12.761719 2 24.152344 2 34 C 2 34.175781 2.046875 34.34375 2.132813 34.496094 C 5.039063 39.605469 12.972656 40.941406 14.78125 41 C 14.789063 41 14.800781 41 14.8125 41 C 15.132813 41 15.433594 40.847656 15.621094 40.589844 L 17.449219 38.074219 C 12.515625 36.800781 9.996094 34.636719 9.851563 34.507813 C 9.4375 34.144531 9.398438 33.511719 9.765625 33.097656 C 10.128906 32.683594 10.761719 32.644531 11.175781 33.007813 C 11.234375 33.0625 15.875 37 25 37 C 34.140625 37 38.78125 33.046875 38.828125 33.007813 C 39.242188 32.648438 39.871094 32.683594 40.238281 33.101563 C 40.601563 33.515625 40.5625 34.144531 40.148438 34.507813 C 40.003906 34.636719 37.484375 36.800781 32.550781 38.074219 L 34.378906 40.589844 C 34.566406 40.847656 34.867188 41 35.1875 41 C 35.199219 41 35.210938 41 35.21875 41 C 37.027344 40.941406 44.960938 39.605469 47.867188 34.496094 C 47.953125 34.34375 48 34.175781 48 34 C 48 24.152344 43.785156 12.761719 41.625 10.769531 Z M 18.5 30 C 16.566406 30 15 28.210938 15 26 C 15 23.789063 16.566406 22 18.5 22 C 20.433594 22 22 23.789063 22 26 C 22 28.210938 20.433594 30 18.5 30 Z M 31.5 30 C 29.566406 30 28 28.210938 28 26 C 28 23.789063 29.566406 22 31.5 22 C 33.433594 22 35 23.789063 35 26 C 35 28.210938 33.433594 30 31.5 30 Z"></path>
    </symbol>

</svg>
